OmeBhatkhandePunjabi.ufo
<glyph name="exclam" format="2">
  <advance width="0"/>
  <unicode hex="0021"/>
  <outline>
    <contour>
      <point x="8925" y="-2000" type="qcurve"/>
      <point x="9097" y="-2000" type="line"/>
      <point x="8741" y="-2191"/>
      <point x="8265" y="-2319" type="qcurve" smooth="yes"/>
      <point x="7586" y="-2502"/>
      <point x="5742" y="-2700"/>
      <point x="4752" y="-2700" type="qcurve" smooth="yes"/>
      <point x="3304" y="-2700"/>
      <point x="913" y="-2311"/>
      <point x="396" y="-2000" type="qcurve"/>
      <point x="594" y="-2000" type="line"/>
      <point x="913" y="-2155"/>
      <point x="2017" y="-2356"/>
      <point x="3711" y="-2455"/>
      <point x="4631" y="-2455" type="qcurve" smooth="yes"/>
      <point x="5632" y="-2455"/>
      <point x="6450" y="-2413" type="qcurve" smooth="yes"/>
      <point x="7095" y="-2380"/>
      <point x="7876" y="-2286"/>
      <point x="8595" y="-2128"/>
    </contour>
  </outline>
</glyph>
<glyph name="dollar" format="2">
  <advance width="7"/>
  <unicode hex="0024"/>
  <outline>
    <contour>
      <point x="5823" y="-1200" type="qcurve"/>
      <point x="5933" y="-1200" type="line"/>
      <point x="5707" y="-1370"/>
      <point x="5403" y="-1485" type="qcurve" smooth="yes"/>
      <point x="4972" y="-1648"/>
      <point x="3798" y="-1825"/>
      <point x="3168" y="-1825" type="qcurve" smooth="yes"/>
      <point x="2246" y="-1825"/>
      <point x="725" y="-1478"/>
      <point x="396" y="-1200" type="qcurve"/>
      <point x="522" y="-1200" type="line"/>
      <point x="725" y="-1339"/>
      <point x="1427" y="-1518"/>
      <point x="2505" y="-1606"/>
      <point x="3091" y="-1606" type="qcurve" smooth="yes"/>
      <point x="3728" y="-1606"/>
      <point x="4248" y="-1569" type="qcurve" smooth="yes"/>
      <point x="4659" y="-1539"/>
      <point x="5156" y="-1455"/>
      <point x="5613" y="-1314"/>
    </contour>
  </outline>
</glyph>
<glyph name="percent" format="2">
  <advance width="7"/>
  <unicode hex="0025"/>
  <outline>
    <contour>
      <point x="7374" y="-1200" type="qcurve"/>
      <point x="7515" y="-1200" type="line"/>
      <point x="7224" y="-1370"/>
      <point x="6834" y="-1485" type="qcurve" smooth="yes"/>
      <point x="6279" y="-1648"/>
      <point x="4770" y="-1825"/>
      <point x="3960" y="-1825" type="qcurve" smooth="yes"/>
      <point x="2775" y="-1825"/>
      <point x="819" y="-1478"/>
      <point x="396" y="-1200" type="qcurve"/>
      <point x="558" y="-1200" type="line"/>
      <point x="819" y="-1339"/>
      <point x="1722" y="-1518"/>
      <point x="3108" y="-1606"/>
      <point x="3861" y="-1606" type="qcurve" smooth="yes"/>
      <point x="4680" y="-1606"/>
      <point x="5349" y="-1569" type="qcurve" smooth="yes"/>
      <point x="5877" y="-1539"/>
      <point x="6516" y="-1455"/>
      <point x="7104" y="-1314"/>
    </contour>
  </outline>
</glyph>
<glyph name="ampersand" format="2">
  <advance width="7"/>
  <unicode hex="0026"/>
  <outline>
    <contour>
      <point x="10475" y="-1200" type="qcurve"/>
      <point x="10679" y="-1200" type="line"/>
      <point x="10259" y="-1391"/>
      <point x="9695" y="-1519" type="qcurve" smooth="yes"/>
      <point x="8894" y="-1702"/>
      <point x="6714" y="-1900"/>
      <point x="5544" y="-1900" type="qcurve" smooth="yes"/>
      <point x="3832" y="-1900"/>
      <point x="1007" y="-1511"/>
      <point x="396" y="-1200" type="qcurve"/>
      <point x="630" y="-1200" type="line"/>
      <point x="1007" y="-1355"/>
      <point x="2311" y="-1556"/>
      <point x="4313" y="-1655"/>
      <point x="5401" y="-1655" type="qcurve" smooth="yes"/>
      <point x="6584" y="-1655"/>
      <point x="7550" y="-1613" type="qcurve" smooth="yes"/>
      <point x="8313" y="-1580"/>
      <point x="9236" y="-1486"/>
      <point x="10085" y="-1328"/>
    </contour>
  </outline>
</glyph>
<glyph name="parenleft" format="2">
  <advance width="791"/>
  <unicode hex="0028"/>
  <outline>
    <contour>
      <point x="604" y="-439" type="line"/>
      <point x="540" y="-380"/>
      <point x="450" y="-288"/>
      <point x="380" y="-202"/>
      <point x="325" y="-116"/>
      <point x="298" y="-65" type="qcurve" smooth="yes"/>
      <point x="149" y="216"/>
      <point x="149" y="546" type="qcurve" smooth="yes"/>
      <point x="149" y="777"/>
      <point x="229" y="984" type="qcurve" smooth="yes"/>
      <point x="257" y="1060"/>
      <point x="323" y="1183"/>
      <point x="409" y="1297"/>
      <point x="524" y="1416"/>
      <point x="604" y="1488" type="qcurve"/>
      <point x="642" y="1435" type="line"/>
      <point x="587" y="1369"/>
      <point x="507" y="1263"/>
      <point x="448" y="1162"/>
      <point x="405" y="1058"/>
      <point x="384" y="994" type="qcurve" smooth="yes"/>
      <point x="356" y="894"/>
      <point x="325" y="675"/>
      <point x="325" y="546" type="qcurve" smooth="yes"/>
      <point x="325" y="286"/>
      <point x="388" y="69" type="qcurve" smooth="yes"/>
      <point x="409" y="-1"/>
      <point x="452" y="-112"/>
      <point x="509" y="-218"/>
      <point x="587" y="-329"/>
      <point x="642" y="-396" type="qcurve"/>
    </contour>
  </outline>
</glyph>
<glyph name="parenright" format="2">
  <advance width="791"/>
  <unicode hex="0029"/>
  <outline>
    <contour>
      <point x="149" y="-396" type="line"/>
      <point x="204" y="-329"/>
      <point x="282" y="-218"/>
      <point x="339" y="-112"/>
      <point x="382" y="-1"/>
      <point x="402" y="69" type="qcurve" smooth="yes"/>
      <point x="466" y="286"/>
      <point x="466" y="546" type="qcurve" smooth="yes"/>
      <point x="466" y="675"/>
      <point x="435" y="894"/>
      <point x="405" y="994" type="qcurve" smooth="yes"/>
      <point x="386" y="1058"/>
      <point x="343" y="1160"/>
      <point x="284" y="1263"/>
      <point x="204" y="1369"/>
      <point x="149" y="1435" type="qcurve"/>
      <point x="187" y="1488" type="line"/>
      <point x="267" y="1416"/>
      <point x="382" y="1295"/>
      <point x="468" y="1181"/>
      <point x="534" y="1058"/>
      <point x="562" y="984" type="qcurve" smooth="yes"/>
      <point x="642" y="777"/>
      <point x="642" y="544" type="qcurve" smooth="yes"/>
      <point x="642" y="357"/>
      <point x="546" y="11"/>
      <point x="452" y="-138" type="qcurve" smooth="yes"/>
      <point x="427" y="-175"/>
      <point x="380" y="-243"/>
      <point x="319" y="-310"/>
      <point x="241" y="-390"/>
      <point x="187" y="-439" type="qcurve"/>
    </contour>
  </outline>
</glyph>
<glyph name="asterisk" format="2">
  <advance width="7"/>
  <unicode hex="002A"/>
  <outline>
    <contour>
      <point x="12026" y="-1200" type="qcurve"/>
      <point x="12261" y="-1200" type="line"/>
      <point x="11776" y="-1391"/>
      <point x="11126" y="-1519" type="qcurve" smooth="yes"/>
      <point x="10201" y="-1702"/>
      <point x="7686" y="-1900"/>
      <point x="6336" y="-1900" type="qcurve" smooth="yes"/>
      <point x="4361" y="-1900"/>
      <point x="1101" y="-1511"/>
      <point x="396" y="-1200" type="qcurve"/>
      <point x="666" y="-1200" type="line"/>
      <point x="1101" y="-1355"/>
      <point x="2606" y="-1556"/>
      <point x="4916" y="-1655"/>
      <point x="6171" y="-1655" type="qcurve" smooth="yes"/>
      <point x="7536" y="-1655"/>
      <point x="8651" y="-1613" type="qcurve" smooth="yes"/>
      <point x="9531" y="-1580"/>
      <point x="10596" y="-1486"/>
      <point x="11576" y="-1328"/>
    </contour>
  </outline>
</glyph>
<glyph name="zero" format="2">
  <advance width="1582"/>
  <unicode hex="0030"/>
  <outline>
    <contour>
      <point x="404" y="671" type="qcurve" smooth="yes"/>
      <point x="404" y="511"/>
      <point x="631" y="284"/>
      <point x="791" y="284" type="qcurve" smooth="yes"/>
      <point x="951" y="284"/>
      <point x="1178" y="511"/>
      <point x="1178" y="671" type="qcurve" smooth="yes"/>
      <point x="1178" y="831"/>
      <point x="951" y="1058"/>
      <point x="791" y="1058" type="qcurve" smooth="yes"/>
      <point x="631" y="1058"/>
      <point x="404" y="831"/>
    </contour>
    <contour>
      <point x="244" y="671" type="qcurve" smooth="yes"/>
      <point x="244" y="897"/>
      <point x="565" y="1218"/>
      <point x="791" y="1218" type="qcurve" smooth="yes"/>
      <point x="1017" y="1218"/>
      <point x="1338" y="897"/>
      <point x="1338" y="671" type="qcurve" smooth="yes"/>
      <point x="1338" y="445"/>
      <point x="1017" y="124"/>
      <point x="791" y="124" type="qcurve" smooth="yes"/>
      <point x="565" y="124"/>
      <point x="244" y="445"/>
    </contour>
  </outline>
</glyph>
<glyph name="one" format="2">
  <advance width="1582"/>
  <unicode hex="0031"/>
  <outline>
    <contour>
      <point x="724" y="1356" type="qcurve" smooth="yes"/>
      <point x="1125" y="1356"/>
      <point x="1125" y="982" type="qcurve" smooth="yes"/>
      <point x="1125" y="965"/>
      <point x="1124" y="948" type="qcurve" smooth="yes"/>
      <point x="1121" y="892"/>
      <point x="1109" y="731" type="qcurve" smooth="yes"/>
      <point x="1102" y="642"/>
      <point x="1102" y="484" type="qcurve" smooth="yes"/>
      <point x="1102" y="185"/>
      <point x="1216" y="46" type="qcurve"/>
      <point x="1219" y="34"/>
      <point x="1219" y="24" type="qcurve" smooth="yes"/>
      <point x="1219" y="-16"/>
      <point x="1180" y="-16" type="qcurve" smooth="yes"/>
      <point x="1113" y="-16"/>
      <point x="1046" y="85" type="qcurve" smooth="yes"/>
      <point x="960" y="214"/>
      <point x="938" y="426" type="qcurve" smooth="yes"/>
      <point x="932" y="484"/>
      <point x="932" y="654"/>
      <point x="938" y="768" type="qcurve"/>
      <point x="909" y="754"/>
      <point x="865" y="737" type="qcurve" smooth="yes"/>
      <point x="778" y="704"/>
      <point x="700" y="700" type="qcurve" smooth="yes"/>
      <point x="682" y="699"/>
      <point x="664" y="699" type="qcurve" smooth="yes"/>
      <point x="662" y="699"/>
      <point x="660" y="699" type="qcurve" smooth="yes"/>
      <point x="525" y="699"/>
      <point x="422" y="769" type="qcurve" smooth="yes"/>
      <point x="292" y="857"/>
      <point x="292" y="1016" type="qcurve" smooth="yes"/>
      <point x="292" y="1163"/>
      <point x="387" y="1254" type="qcurve" smooth="yes"/>
      <point x="493" y="1356"/>
      <point x="674" y="1356" type="qcurve" smooth="yes"/>
      <point x="684" y="1356"/>
      <point x="710" y="1356"/>
    </contour>
    <contour>
      <point x="704" y="1194" type="qcurve" smooth="yes"/>
      <point x="585" y="1194"/>
      <point x="520" y="1147" type="qcurve" smooth="yes"/>
      <point x="456" y="1101"/>
      <point x="456" y="1028" type="qcurve" smooth="yes"/>
      <point x="456" y="1026"/>
      <point x="456" y="1024" type="qcurve" smooth="yes"/>
      <point x="456" y="947"/>
      <point x="530" y="898" type="qcurve" smooth="yes"/>
      <point x="594" y="854"/>
      <point x="678" y="854" type="qcurve" smooth="yes"/>
      <point x="756" y="854"/>
      <point x="840" y="889" type="qcurve" smooth="yes"/>
      <point x="950" y="935"/>
      <point x="950" y="1018" type="qcurve" smooth="yes"/>
      <point x="950" y="1021"/>
      <point x="950" y="1024" type="qcurve" smooth="yes"/>
      <point x="950" y="1145"/>
      <point x="830" y="1182" type="qcurve" smooth="yes"/>
      <point x="791" y="1194"/>
    </contour>
  </outline>
</glyph>
<glyph name="two" format="1">
  <advance width="1582"/>
  <unicode hex="0032"/>
  <outline>
    <contour>
      <point x="802" y="1342" type="qcurve" smooth="yes"/>
      <point x="819.741" y="1342.58"/>
      <point x="836.903" y="1342.58" type="qcurve" smooth="yes"/>
      <point x="1084.81" y="1342.58"/>
      <point x="1212" y="1221" type="qcurve" smooth="yes"/>
      <point x="1336" y="1103"/>
      <point x="1336" y="882" type="qcurve" smooth="yes"/>
      <point x="1336" y="665"/>
      <point x="1218" y="533" type="qcurve" smooth="yes"/>
      <point x="1118" y="420"/>
      <point x="910" y="348" type="qcurve"/>
      <point x="956" y="310"/>
      <point x="1081" y="226" type="qcurve" smooth="yes"/>
      <point x="1142" y="186"/>
      <point x="1142" y="154" type="qcurve" smooth="yes"/>
      <point x="1142" y="144"/>
      <point x="1138" y="132" type="qcurve" smooth="yes"/>
      <point x="1127" y="97"/>
      <point x="1092" y="97" type="qcurve" smooth="yes"/>
      <point x="1052" y="97"/>
      <point x="923" y="165" type="qcurve" smooth="yes"/>
      <point x="780" y="239"/>
      <point x="708" y="254" type="qcurve" smooth="yes"/>
      <point x="586" y="275"/>
      <point x="465" y="295" type="qcurve"/>
      <point x="345" y="324"/>
      <point x="340" y="396" type="qcurve" smooth="yes"/>
      <point x="339.667" y="401.167"/>
      <point x="339.667" y="406.188" type="qcurve" smooth="yes"/>
      <point x="339.667" y="461.417"/>
      <point x="380" y="499" type="qcurve" smooth="yes"/>
      <point x="419" y="534"/>
      <point x="470" y="536" type="qcurve" smooth="yes"/>
      <point x="473.632" y="536.105"/>
      <point x="477.26" y="536.105" type="qcurve" smooth="yes"/>
      <point x="542.579" y="536.105"/>
      <point x="607" y="502" type="qcurve" smooth="yes"/>
      <point x="675" y="466"/>
      <point x="734" y="466" type="qcurve" smooth="yes"/>
      <point x="880" y="466"/>
      <point x="1015" y="555" type="qcurve" smooth="yes"/>
      <point x="1182.64" y="667.074"/>
      <point x="1182.64" y="858.09" type="qcurve" smooth="yes"/>
      <point x="1182.64" y="869.894"/>
      <point x="1182" y="882" type="qcurve" smooth="yes"/>
      <point x="1172" y="1058"/>
      <point x="1081" y="1122" type="qcurve" smooth="yes"/>
      <point x="995" y="1181"/>
      <point x="760" y="1188" type="qcurve" smooth="yes"/>
      <point x="751.343" y="1188.26"/>
      <point x="742.59" y="1188.26" type="qcurve" smooth="yes"/>
      <point x="649.229" y="1188.26"/>
      <point x="545" y="1159" type="qcurve" smooth="yes"/>
      <point x="427" y="1127"/>
      <point x="410" y="1127" type="qcurve" smooth="yes"/>
      <point x="370" y="1127"/>
      <point x="352" y="1168" type="qcurve" smooth="yes"/>
      <point x="343" y="1188"/>
      <point x="343" y="1206" type="qcurve" smooth="yes"/>
      <point x="343" y="1327"/>
    </contour>
  </outline>
</glyph>
<glyph name="three" format="2">
  <advance width="1582"/>
  <unicode hex="0033"/>
  <outline>
    <contour>
      <point x="1138" y="1032" type="qcurve" smooth="yes"/>
      <point x="1138" y="1040"/>
      <point x="1138" y="1044" type="qcurve" smooth="yes"/>
      <point x="1138" y="1049"/>
      <point x="1138" y="1053"/>
      <point x="1138" y="1057"/>
      <point x="1138.11" y="1060.99"/>
      <point x="1138.11" y="1062.95" type="qcurve" smooth="yes"/>
      <point x="1138.11" y="1188"/>
      <point x="698" y="1188" type="qcurve" smooth="yes"/>
      <point x="654" y="1188"/>
      <point x="423" y="1140"/>
      <point x="376" y="1140" type="qcurve" smooth="yes"/>
      <point x="298" y="1140"/>
      <point x="284" y="1188" type="qcurve" smooth="yes"/>
      <point x="281" y="1197"/>
      <point x="281" y="1206" type="qcurve" smooth="yes"/>
      <point x="281" y="1284"/>
      <point x="491" y="1318" type="qcurve" smooth="yes"/>
      <point x="621" y="1340"/>
      <point x="966" y="1340"/>
      <point x="1121" y="1264" type="qcurve" smooth="yes"/>
      <point x="1300" y="1175"/>
      <point x="1300" y="1030" type="qcurve" smooth="yes"/>
      <point x="1300" y="930"/>
      <point x="1178" y="812" type="qcurve" smooth="yes"/>
      <point x="1178" y="812"/>
      <point x="1178" y="804"/>
      <point x="1278" y="697"/>
      <point x="1278" y="612" type="qcurve" smooth="yes"/>
      <point x="1278" y="567" type="line" smooth="yes"/>
      <point x="1278" y="562"/>
      <point x="1278" y="552"/>
      <point x="1278" y="548" type="qcurve" smooth="yes"/>
      <point x="1278" y="543"/>
      <point x="1278" y="539" type="qcurve" smooth="yes"/>
      <point x="1278.41" y="534.234"/>
      <point x="1278.41" y="529.51" type="qcurve" smooth="yes"/>
      <point x="1278.41" y="396.434"/>
      <point x="952" y="296" type="qcurve" smooth="yes"/>
      <point x="950" y="295"/>
      <point x="950" y="286"/>
      <point x="1203" y="197"/>
      <point x="1203" y="146" type="qcurve" smooth="yes"/>
      <point x="1203" y="138"/>
      <point x="1200" y="130" type="qcurve" smooth="yes"/>
      <point x="1188" y="96"/>
      <point x="1064" y="96"/>
      <point x="788" y="190"/>
      <point x="658" y="236" type="qcurve"/>
      <point x="540" y="267"/>
      <point x="421" y="298" type="qcurve"/>
      <point x="280" y="346"/>
      <point x="280" y="429" type="qcurve" smooth="yes"/>
      <point x="280" y="438" type="line" smooth="yes"/>
      <point x="280" y="529"/>
      <point x="402" y="529" type="qcurve" smooth="yes"/>
      <point x="490" y="529"/>
      <point x="670" y="390"/>
      <point x="777" y="390" type="qcurve" smooth="yes"/>
      <point x="811" y="390"/>
      <point x="961" y="440"/>
      <point x="997" y="458" type="qcurve" smooth="yes"/>
      <point x="1116" y="517"/>
      <point x="1116" y="593" type="qcurve" smooth="yes"/>
      <point x="1116" y="603"/>
      <point x="1114" y="612" type="qcurve" smooth="yes"/>
      <point x="1090" y="741"/>
      <point x="940" y="741" type="qcurve" smooth="yes"/>
      <point x="902" y="741"/>
      <point x="661" y="711"/>
      <point x="604" y="711" type="qcurve" smooth="yes"/>
      <point x="372" y="711"/>
      <point x="372" y="806" type="qcurve" smooth="yes"/>
      <point x="372" y="810"/>
      <point x="372" y="813" type="qcurve" smooth="yes"/>
      <point x="372" y="817"/>
      <point x="372" y="817" type="qcurve" smooth="yes"/>
      <point x="372" y="818"/>
      <point x="372" y="820"/>
      <point x="371.943" y="821.971"/>
      <point x="371.943" y="822.941" type="qcurve" smooth="yes"/>
      <point x="371.943" y="855.914"/>
      <point x="438" y="887" type="qcurve" smooth="yes"/>
      <point x="506" y="919"/>
      <point x="582" y="919" type="qcurve" smooth="yes"/>
      <point x="661" y="919"/>
      <point x="870" y="888"/>
      <point x="925" y="888" type="qcurve" smooth="yes"/>
      <point x="1138" y="888"/>
    </contour>
  </outline>
</glyph>
<glyph name="four" format="2">
  <advance width="1582"/>
  <unicode hex="0034"/>
  <outline>
    <contour>
      <point x="798" y="726" type="qcurve" smooth="yes"/>
      <point x="919" y="726"/>
      <point x="1008" y="806" type="qcurve" smooth="yes"/>
      <point x="1090" y="879"/>
      <point x="1090" y="966" type="qcurve" smooth="yes"/>
      <point x="1090" y="1068"/>
      <point x="1009" y="1125" type="qcurve" smooth="yes"/>
      <point x="955" y="1163"/>
      <point x="894" y="1168" type="qcurve"/>
      <point x="894" y="1324" type="line"/>
      <point x="1097" y="1292"/>
      <point x="1178" y="1207" type="qcurve" smooth="yes"/>
      <point x="1254" y="1127"/>
      <point x="1254" y="966" type="qcurve" smooth="yes"/>
      <point x="1254" y="877"/>
      <point x="1214" y="814" type="qcurve" smooth="yes"/>
      <point x="1197" y="787"/>
      <point x="1138" y="731" type="qcurve" smooth="yes"/>
      <point x="1098" y="692"/>
      <point x="1098" y="660" type="qcurve" smooth="yes"/>
      <point x="1098" y="652"/>
      <point x="1128" y="621" type="qcurve" smooth="yes"/>
      <point x="1165" y="583"/>
      <point x="1184" y="544" type="qcurve" smooth="yes"/>
      <point x="1214" y="483"/>
      <point x="1214" y="400" type="qcurve" smooth="yes"/>
      <point x="1214" y="254"/>
      <point x="1088" y="168" type="qcurve" smooth="yes"/>
      <point x="972" y="88"/>
      <point x="796" y="88" type="qcurve" smooth="yes"/>
      <point x="614" y="88"/>
      <point x="500" y="168" type="qcurve" smooth="yes"/>
      <point x="378" y="252"/>
      <point x="378" y="400" type="qcurve" smooth="yes"/>
      <point x="378" y="482"/>
      <point x="409" y="540" type="qcurve" smooth="yes"/>
      <point x="426" y="572"/>
      <point x="465" y="612" type="qcurve" smooth="yes"/>
      <point x="496" y="643"/>
      <point x="496" y="660" type="qcurve" smooth="yes"/>
      <point x="496" y="689"/>
      <point x="455" y="729" type="qcurve" smooth="yes"/>
      <point x="397" y="784"/>
      <point x="377" y="815" type="qcurve" smooth="yes"/>
      <point x="336" y="881"/>
      <point x="336" y="974" type="qcurve" smooth="yes"/>
      <point x="336" y="1120"/>
      <point x="432" y="1212" type="qcurve" smooth="yes"/>
      <point x="522" y="1299"/>
      <point x="680" y="1324" type="qcurve"/>
      <point x="680" y="1168" type="line"/>
      <point x="496" y="1122"/>
      <point x="496" y="966" type="qcurve" smooth="yes"/>
      <point x="496" y="872"/>
      <point x="562" y="806" type="qcurve" smooth="yes"/>
      <point x="643" y="726"/>
    </contour>
    <contour>
      <point x="798" y="588" type="qcurve" smooth="yes"/>
      <point x="667" y="588"/>
      <point x="610" y="554" type="qcurve" smooth="yes"/>
      <point x="538" y="512"/>
      <point x="538" y="400" type="qcurve" smooth="yes"/>
      <point x="538" y="238"/>
      <point x="796" y="238" type="qcurve" smooth="yes"/>
      <point x="1048" y="238"/>
      <point x="1048" y="400" type="qcurve" smooth="yes"/>
      <point x="1048" y="518"/>
      <point x="975" y="559" type="qcurve" smooth="yes"/>
      <point x="923" y="588"/>
    </contour>
  </outline>
</glyph>
<glyph name="five" format="2">
  <advance width="1582"/>
  <unicode hex="0035"/>
  <outline>
    <contour>
      <point x="1230" y="90" type="line"/>
      <point x="1077" y="90" type="line"/>
      <point x="1077" y="398" type="line"/>
      <point x="1034" y="358"/>
      <point x="949" y="325" type="qcurve" smooth="yes"/>
      <point x="856" y="287"/>
      <point x="781" y="287" type="qcurve" smooth="yes"/>
      <point x="595" y="287"/>
      <point x="453" y="385" type="qcurve" smooth="yes"/>
      <point x="360" y="449"/>
      <point x="327" y="512" type="qcurve"/>
      <point x="329" y="522"/>
      <point x="392" y="701" type="qcurve" smooth="yes"/>
      <point x="458" y="887"/>
      <point x="468" y="945" type="qcurve" smooth="yes"/>
      <point x="471" y="959"/>
      <point x="471" y="977" type="qcurve" smooth="yes"/>
      <point x="471" y="1041"/>
      <point x="442" y="1087" type="qcurve" smooth="yes"/>
      <point x="406" y="1146"/>
      <point x="335" y="1146" type="qcurve" smooth="yes"/>
      <point x="266" y="1146" type="line"/>
      <point x="266" y="1288" type="line"/>
      <point x="436" y="1288" type="line" smooth="yes"/>
      <point x="510" y="1288"/>
      <point x="568" y="1181" type="qcurve" smooth="yes"/>
      <point x="621" y="1083"/>
      <point x="621" y="979" type="qcurve" smooth="yes"/>
      <point x="621" y="956"/>
      <point x="618" y="936" type="qcurve" smooth="yes"/>
      <point x="583" y="750"/>
      <point x="486" y="543" type="qcurve"/>
      <point x="615" y="438"/>
      <point x="826" y="438" type="qcurve" smooth="yes"/>
      <point x="874" y="438"/>
      <point x="966" y="487" type="qcurve" smooth="yes"/>
      <point x="1054" y="535"/>
      <point x="1077" y="568" type="qcurve"/>
      <point x="1077" y="1288" type="line"/>
      <point x="1230" y="1288" type="line"/>
    </contour>
  </outline>
</glyph>
<glyph name="six" format="1">
  <advance width="1582"/>
  <unicode hex="0036"/>
  <outline>
    <contour>
      <point x="834" y="1226" type="qcurve" smooth="yes"/>
      <point x="836" y="1227"/>
      <point x="836" y="1229" type="qcurve" smooth="yes"/>
      <point x="836" y="1235"/>
      <point x="753" y="1347"/>
      <point x="752" y="1376" type="qcurve" smooth="yes"/>
      <point x="751.83" y="1382"/>
      <point x="751.83" y="1387.87" type="qcurve" smooth="yes"/>
      <point x="751.83" y="1519.94"/>
      <point x="838" y="1586" type="qcurve" smooth="yes"/>
      <point x="910" y="1641"/>
      <point x="1027" y="1641" type="qcurve" smooth="yes"/>
      <point x="1101" y="1641"/>
      <point x="1221" y="1598"/>
      <point x="1221" y="1575" type="qcurve" smooth="yes"/>
      <point x="1221" y="1563"/>
      <point x="1202" y="1554" type="qcurve"/>
      <point x="906" y="1554"/>
      <point x="906" y="1414" type="qcurve" smooth="yes"/>
      <point x="906" y="1369"/>
      <point x="924" y="1334" type="qcurve" smooth="yes"/>
      <point x="930" y="1323"/>
      <point x="980" y="1250" type="qcurve" smooth="yes"/>
      <point x="1009" y="1207"/>
      <point x="1084" y="1174" type="qcurve" smooth="yes"/>
      <point x="1138.15" y="1149.3"/>
      <point x="1138.15" y="1122.8" type="qcurve" smooth="yes"/>
      <point x="1138.15" y="1121.4"/>
      <point x="1138" y="1120" type="qcurve" smooth="yes"/>
      <point x="1126" y="1020"/>
      <point x="1054" y="1020" type="qcurve" smooth="yes"/>
      <point x="1041" y="1020"/>
      <point x="1028" y="1024" type="qcurve" smooth="yes"/>
      <point x="1007" y="1030"/>
      <point x="862" y="1079" type="qcurve" smooth="yes"/>
      <point x="812" y="1096"/>
      <point x="748" y="1096" type="qcurve" smooth="yes"/>
      <point x="640" y="1096"/>
      <point x="564" y="1047" type="qcurve" smooth="yes"/>
      <point x="491.8" y="1000.45"/>
      <point x="491.8" y="933.143" type="qcurve" smooth="yes"/>
      <point x="491.8" y="929.6"/>
      <point x="492" y="926" type="qcurve" smooth="yes"/>
      <point x="502" y="721"/>
      <point x="699" y="721" type="qcurve" smooth="yes"/>
      <point x="738" y="721"/>
      <point x="888" y="754"/>
      <point x="927" y="754" type="qcurve" smooth="yes"/>
      <point x="1003" y="754"/>
      <point x="1112" y="704"/>
      <point x="1114" y="668" type="qcurve" smooth="yes"/>
      <point x="1114.18" y="664.911"/>
      <point x="1114.18" y="661.914" type="qcurve" smooth="yes"/>
      <point x="1114.18" y="564"/>
      <point x="924" y="564" type="qcurve" smooth="yes"/>
      <point x="887" y="564"/>
      <point x="739" y="581"/>
      <point x="702" y="581" type="qcurve" smooth="yes"/>
      <point x="516" y="581"/>
      <point x="502" y="414" type="qcurve" smooth="yes"/>
      <point x="501" y="399"/>
      <point x="501" y="385" type="qcurve" smooth="yes"/>
      <point x="501" y="276"/>
      <point x="586" y="247" type="qcurve" smooth="yes"/>
      <point x="629" y="232"/>
      <point x="780" y="232" type="qcurve" smooth="yes"/>
      <point x="1036" y="232" type="line" smooth="yes"/>
      <point x="1087" y="232"/>
      <point x="1105" y="227" type="qcurve" smooth="yes"/>
      <point x="1141" y="215"/>
      <point x="1144" y="176" type="qcurve" smooth="yes"/>
      <point x="1144.3" y="171.6"/>
      <point x="1144.3" y="167.42" type="qcurve" smooth="yes"/>
      <point x="1144.3" y="88"/>
      <point x="1036" y="88" type="qcurve" smooth="yes"/>
      <point x="620" y="88" type="line" smooth="yes"/>
      <point x="503" y="88"/>
      <point x="344" y="271"/>
      <point x="344" y="408" type="qcurve" smooth="yes"/>
      <point x="344" y="505"/>
      <point x="398" y="566" type="qcurve" smooth="yes"/>
      <point x="446.167" y="621.722"/>
      <point x="446.167" y="666.741" type="qcurve" smooth="yes"/>
      <point x="446.167" y="669.389"/>
      <point x="446" y="672" type="qcurve" smooth="yes"/>
      <point x="445" y="686"/>
      <point x="391" y="767" type="qcurve" smooth="yes"/>
      <point x="340" y="844"/>
      <point x="340" y="948" type="qcurve" smooth="yes"/>
      <point x="340" y="1074"/>
      <point x="440" y="1147" type="qcurve" smooth="yes"/>
      <point x="523" y="1208"/>
      <point x="657" y="1225" type="qcurve" smooth="yes"/>
      <point x="703.619" y="1230.76"/>
      <point x="749.964" y="1230.76" type="qcurve" smooth="yes"/>
      <point x="792.095" y="1230.76"/>
    </contour>
  </outline>
</glyph>
<glyph name="seven" format="1">
  <advance width="1582"/>
  <unicode hex="0037"/>
  <outline>
    <contour>
      <point x="1278" y="920" type="qcurve" smooth="yes"/>
      <point x="1278" y="914"/>
      <point x="1278" y="902"/>
      <point x="1278" y="897" type="qcurve" smooth="yes"/>
      <point x="1278.1" y="891.716"/>
      <point x="1278.1" y="886.459" type="qcurve" smooth="yes"/>
      <point x="1278.1" y="737.5"/>
      <point x="1196" y="610" type="qcurve" smooth="yes"/>
      <point x="1127" y="503"/>
      <point x="1032" y="434" type="qcurve" smooth="yes"/>
      <point x="883" y="327"/>
      <point x="728" y="261" type="qcurve" smooth="yes"/>
      <point x="615" y="211"/>
      <point x="503" y="162" type="qcurve" smooth="yes"/>
      <point x="334" y="92"/>
      <point x="273" y="92" type="qcurve" smooth="yes"/>
      <point x="217" y="92"/>
      <point x="217" y="128" type="qcurve" smooth="yes"/>
      <point x="217" y="168"/>
      <point x="624" y="358"/>
      <point x="639" y="365" type="qcurve" smooth="yes"/>
      <point x="763" y="427"/>
      <point x="848" y="486" type="qcurve" smooth="yes"/>
      <point x="982" y="580"/>
      <point x="1028" y="639" type="qcurve" smooth="yes"/>
      <point x="1090" y="718"/>
      <point x="1112" y="856" type="qcurve" smooth="yes"/>
      <point x="1117" y="887"/>
      <point x="1117" y="916" type="qcurve" smooth="yes"/>
      <point x="1117" y="1038"/>
      <point x="1034" y="1105" type="qcurve" smooth="yes"/>
      <point x="945" y="1177"/>
      <point x="797" y="1177" type="qcurve" smooth="yes"/>
      <point x="794" y="1177"/>
      <point x="790" y="1177"/>
      <point x="787" y="1177" type="qcurve" smooth="yes"/>
      <point x="784.82" y="1177.07"/>
      <point x="782.646" y="1177.07" type="qcurve" smooth="yes"/>
      <point x="692.031" y="1177.07"/>
      <point x="610" y="1055" type="qcurve" smooth="yes"/>
      <point x="560" y="981"/>
      <point x="558" y="978" type="qcurve" smooth="yes"/>
      <point x="521" y="933"/>
      <point x="484" y="933" type="qcurve" smooth="yes"/>
      <point x="390" y="933"/>
      <point x="390" y="1041" type="qcurve" smooth="yes"/>
      <point x="390" y="1150"/>
      <point x="541" y="1244" type="qcurve" smooth="yes"/>
      <point x="683" y="1332"/>
      <point x="825" y="1332" type="qcurve" smooth="yes"/>
      <point x="1028" y="1332"/>
      <point x="1136" y="1235" type="qcurve" smooth="yes"/>
      <point x="1278" y="1107"/>
    </contour>
  </outline>
</glyph>
<glyph name="eight" format="1">
  <advance width="1582"/>
  <unicode hex="0038"/>
  <outline>
    <contour>
      <point x="1272" y="966" type="line"/>
      <point x="480" y="966" type="line"/>
      <point x="476" y="931"/>
      <point x="476" y="886" type="qcurve" smooth="yes"/>
      <point x="476" y="689"/>
      <point x="552" y="552" type="qcurve" smooth="yes"/>
      <point x="666" y="346"/>
      <point x="820" y="279" type="qcurve" smooth="yes"/>
      <point x="881" y="252"/>
      <point x="1014" y="242" type="qcurve"/>
      <point x="1099" y="244"/>
      <point x="1184" y="245" type="qcurve"/>
      <point x="1272" y="238"/>
      <point x="1272" y="152" type="qcurve" smooth="yes"/>
      <point x="1272" y="150"/>
      <point x="1272" y="148" type="qcurve" smooth="yes"/>
      <point x="1272.08" y="146.234"/>
      <point x="1272.08" y="144.517" type="qcurve" smooth="yes"/>
      <point x="1272.08" y="85"/>
      <point x="1171" y="85" type="qcurve" smooth="yes"/>
      <point x="1156" y="85"/>
      <point x="1081" y="88"/>
      <point x="1060" y="88" type="qcurve" smooth="yes"/>
      <point x="598" y="88"/>
      <point x="396" y="510" type="qcurve" smooth="yes"/>
      <point x="326" y="657"/>
      <point x="326" y="872" type="qcurve" smooth="yes"/>
      <point x="326" y="925"/>
      <point x="330" y="966" type="qcurve"/>
      <point x="228" y="966" type="line" smooth="yes"/>
      <point x="169" y="966"/>
      <point x="169" y="1034" type="qcurve" smooth="yes"/>
      <point x="169" y="1077"/>
      <point x="214" y="1181"/>
      <point x="242" y="1208" type="qcurve" smooth="yes"/>
      <point x="333" y="1295"/>
      <point x="441" y="1295" type="qcurve" smooth="yes"/>
      <point x="508" y="1295"/>
      <point x="508" y="1236" type="qcurve" smooth="yes"/>
      <point x="508" y="1120" type="line"/>
      <point x="1272" y="1120" type="line"/>
    </contour>
  </outline>
</glyph>
<glyph name="nine" format="1">
  <advance width="1582"/>
  <unicode hex="0039"/>
  <outline>
    <contour>
      <point x="1170" y="966" type="qcurve" smooth="yes"/>
      <point x="498" y="966" type="line"/>
      <point x="494" y="931"/>
      <point x="494" y="885" type="qcurve" smooth="yes"/>
      <point x="494" y="688"/>
      <point x="570" y="552" type="qcurve" smooth="yes"/>
      <point x="685" y="346"/>
      <point x="839" y="278" type="qcurve" smooth="yes"/>
      <point x="906" y="248"/>
      <point x="1032" y="242" type="qcurve" smooth="yes"/>
      <point x="1050.5" y="241"/>
      <point x="1093.5" y="241"/>
      <point x="1118" y="242" type="qcurve" smooth="yes"/>
      <point x="1182" y="244"/>
      <point x="1189" y="244" type="qcurve" smooth="yes"/>
      <point x="1242" y="244"/>
      <point x="1264" y="228" type="qcurve" smooth="yes"/>
      <point x="1290" y="208"/>
      <point x="1290" y="152" type="qcurve" smooth="yes"/>
      <point x="1290" y="85"/>
      <point x="1189" y="85" type="qcurve" smooth="yes"/>
      <point x="1174" y="85"/>
      <point x="1100" y="88"/>
      <point x="1078" y="88" type="qcurve" smooth="yes"/>
      <point x="618" y="88"/>
      <point x="416" y="510" type="qcurve" smooth="yes"/>
      <point x="344" y="660"/>
      <point x="344" y="879" type="qcurve" smooth="yes"/>
      <point x="344" y="928"/>
      <point x="348" y="966" type="qcurve"/>
      <point x="246" y="966" type="line" smooth="yes"/>
      <point x="187" y="966"/>
      <point x="187" y="1034" type="qcurve" smooth="yes"/>
      <point x="187" y="1076"/>
      <point x="210" y="1130" type="qcurve" smooth="yes"/>
      <point x="232" y="1181"/>
      <point x="260" y="1208" type="qcurve" smooth="yes"/>
      <point x="350" y="1295"/>
      <point x="458" y="1295" type="qcurve" smooth="yes"/>
      <point x="526" y="1295"/>
      <point x="526" y="1236" type="qcurve" smooth="yes"/>
      <point x="526" y="1120" type="line"/>
      <point x="942" y="1120" type="line"/>
      <point x="843.913" y="1200.61"/>
      <point x="843.913" y="1332.14" type="qcurve" smooth="yes"/>
      <point x="843.913" y="1336.05"/>
      <point x="844" y="1340" type="qcurve" smooth="yes"/>
      <point x="847" y="1472"/>
      <point x="946" y="1537" type="qcurve" smooth="yes"/>
      <point x="1025" y="1588"/>
      <point x="1144" y="1588" type="qcurve" smooth="yes"/>
      <point x="1208" y="1588"/>
      <point x="1304" y="1558"/>
      <point x="1304" y="1539" type="qcurve" smooth="yes"/>
      <point x="1304" y="1529"/>
      <point x="1286" y="1520" type="qcurve"/>
      <point x="1204" y="1514"/>
      <point x="1144" y="1497" type="qcurve" smooth="yes"/>
      <point x="1000" y="1457"/>
      <point x="990" y="1372" type="qcurve" smooth="yes"/>
      <point x="988" y="1357"/>
      <point x="988" y="1343" type="qcurve" smooth="yes"/>
      <point x="988" y="1289"/>
      <point x="1016" y="1239" type="qcurve" smooth="yes"/>
      <point x="1027" y="1221"/>
      <point x="1078" y="1152" type="qcurve" smooth="yes"/>
      <point x="1107" y="1113"/>
      <point x="1194" y="1082" type="qcurve" smooth="yes"/>
      <point x="1273" y="1054"/>
      <point x="1286" y="1016"/>
      <point x="1286" y="1002" type="qcurve" smooth="yes"/>
      <point x="1286" y="964"/>
      <point x="1227" y="964" type="qcurve" smooth="yes"/>
      <point x="1217" y="964"/>
      <point x="1178" y="966"/>
    </contour>
  </outline>
</glyph>
<glyph name="semicolon" format="2">
  <advance width="1582"/>
  <unicode hex="003B"/>
  <unicode hex="037E"/>
  <outline>
    <contour>
      <point x="1282" y="1169" type="line"/>
      <point x="1106" y="1169" type="line"/>
      <point x="1093" y="1136"/>
      <point x="1093" y="1109" type="qcurve" smooth="yes"/>
      <point x="1093" y="1083"/>
      <point x="1111" y="987" type="qcurve" smooth="yes"/>
      <point x="1122" y="929"/>
      <point x="1122" y="899" type="qcurve" smooth="yes"/>
      <point x="1122" y="869" type="line"/>
      <point x="1117" y="839"/>
      <point x="1095" y="773" type="qcurve"/>
      <point x="1077" y="766"/>
      <point x="1040" y="767" type="qcurve" smooth="yes"/>
      <point x="879" y="771" type="line" smooth="yes"/>
      <point x="646" y="777"/>
      <point x="559" y="674" type="qcurve" smooth="yes"/>
      <point x="495" y="598"/>
      <point x="495" y="509" type="qcurve" smooth="yes"/>
      <point x="495" y="415"/>
      <point x="620" y="280"/>
      <point x="714" y="280" type="qcurve"/>
      <point x="765" y="285" type="line" smooth="yes"/>
      <point x="794" y="291"/>
      <point x="820" y="306" type="qcurve" smooth="yes"/>
      <point x="833" y="316"/>
      <point x="832" y="345" type="qcurve" smooth="yes"/>
      <point x="830" y="400" type="line" smooth="yes"/>
      <point x="826" y="521"/>
      <point x="969" y="544" type="qcurve"/>
      <point x="1037" y="544"/>
      <point x="1164" y="420"/>
      <point x="1164" y="352" type="qcurve" smooth="yes"/>
      <point x="1164" y="317"/>
      <point x="1149" y="285" type="qcurve" smooth="yes"/>
      <point x="1143" y="271"/>
      <point x="1102" y="231" type="qcurve" smooth="yes"/>
      <point x="1065" y="195"/>
      <point x="1065" y="182" type="qcurve"/>
      <point x="1079" y="151" type="line"/>
      <point x="1106" y="111"/>
      <point x="1184" y="16" type="qcurve" smooth="yes"/>
      <point x="1297" y="-122"/>
      <point x="1297" y="-189" type="qcurve" smooth="yes"/>
      <point x="1297" y="-227"/>
      <point x="1268" y="-264" type="qcurve" smooth="yes"/>
      <point x="1251" y="-280"/>
      <point x="1226" y="-280" type="qcurve" smooth="yes"/>
      <point x="1183" y="-280"/>
      <point x="1116" y="-239" type="qcurve" smooth="yes"/>
      <point x="1044" y="-195"/>
      <point x="1044" y="-156" type="qcurve" smooth="yes"/>
      <point x="1044" y="-126"/>
      <point x="1101" y="-76"/>
      <point x="1104" y="-60" type="qcurve" smooth="yes"/>
      <point x="1104" y="-16"/>
      <point x="1006" y="120" type="qcurve"/>
      <point x="988" y="139" type="line" smooth="yes"/>
      <point x="973" y="151"/>
      <point x="948" y="155" type="qcurve"/>
      <point x="923" y="151" type="line"/>
      <point x="863" y="146" type="line" smooth="yes"/>
      <point x="851" y="145"/>
      <point x="837" y="145" type="qcurve" smooth="yes"/>
      <point x="697" y="145"/>
      <point x="534" y="274" type="qcurve" smooth="yes"/>
      <point x="361" y="411"/>
      <point x="339" y="609" type="qcurve"/>
      <point x="339" y="763"/>
      <point x="447" y="844" type="qcurve" smooth="yes"/>
      <point x="544" y="918"/>
      <point x="703" y="916" type="qcurve" smooth="yes"/>
      <point x="806" y="915" type="line" smooth="yes"/>
      <point x="882" y="914"/>
      <point x="898" y="921" type="qcurve" smooth="yes"/>
      <point x="927" y="933"/>
      <point x="943" y="993" type="qcurve"/>
      <point x="943" y="1169" type="line"/>
      <point x="286" y="1169" type="line"/>
      <point x="286" y="1325" type="line"/>
      <point x="1282" y="1325" type="line"/>
    </contour>
  </outline>
</glyph>
<glyph name="at" format="2">
  <advance width="7"/>
  <unicode hex="0040"/>
  <outline>
    <contour>
      <point x="2722" y="-1200" type="qcurve"/>
      <point x="2769" y="-1200" type="line"/>
      <point x="2672" y="-1350"/>
      <point x="2542" y="-1451" type="qcurve" smooth="yes"/>
      <point x="2357" y="-1594"/>
      <point x="1854" y="-1750"/>
      <point x="1584" y="-1750" type="qcurve" smooth="yes"/>
      <point x="1189" y="-1750"/>
      <point x="537" y="-1445"/>
      <point x="396" y="-1200" type="qcurve"/>
      <point x="450" y="-1200" type="line"/>
      <point x="537" y="-1322"/>
      <point x="838" y="-1479"/>
      <point x="1300" y="-1557"/>
      <point x="1551" y="-1557" type="qcurve" smooth="yes"/>
      <point x="1824" y="-1557"/>
      <point x="2047" y="-1524" type="qcurve" smooth="yes"/>
      <point x="2223" y="-1498"/>
      <point x="2436" y="-1425"/>
      <point x="2632" y="-1300"/>
    </contour>
  </outline>
</glyph>
<glyph name="G" format="2">
  <advance width="1582"/>
  <unicode hex="0047"/>
  <outline>
    <contour>
      <point x="1226" y="1128" type="line"/>
      <point x="1226" y="90" type="line"/>
      <point x="1066" y="90" type="line"/>
      <point x="1066" y="1128" type="line"/>
      <point x="862" y="1128" type="line"/>
      <point x="862" y="406" type="line" smooth="yes"/>
      <point x="862" y="249"/>
      <point x="776" y="168" type="qcurve" smooth="yes"/>
      <point x="704" y="100"/>
      <point x="598" y="100" type="qcurve" smooth="yes"/>
      <point x="426" y="100"/>
      <point x="298" y="257" type="qcurve" smooth="yes"/>
      <point x="177" y="405"/>
      <point x="177" y="578" type="qcurve" smooth="yes"/>
      <point x="177" y="759"/>
      <point x="320" y="834" type="qcurve" smooth="yes"/>
      <point x="411" y="882"/>
      <point x="700" y="882" type="qcurve"/>
      <point x="700" y="1128" type="line"/>
      <point x="126" y="1128" type="line"/>
      <point x="126" y="1288" type="line"/>
      <point x="1440" y="1288" type="line"/>
      <point x="1440" y="1128" type="line"/>
    </contour>
    <contour>
      <point x="700" y="724" type="line"/>
      <point x="577" y="720"/>
      <point x="434" y="710" type="qcurve"/>
      <point x="342" y="682"/>
      <point x="342" y="569" type="qcurve" smooth="yes"/>
      <point x="342" y="462"/>
      <point x="416" y="364" type="qcurve" smooth="yes"/>
      <point x="496" y="260"/>
      <point x="598" y="260" type="qcurve" smooth="yes"/>
      <point x="673" y="260"/>
      <point x="700" y="342" type="qcurve"/>
    </contour>
    <contour>
      <point x="1413" y="88" type="move" smooth="yes"/>
    </contour>
    <contour>
      <point x="1262" y="-2" type="move" smooth="yes"/>
    </contour>
    <contour>
      <point x="1209" y="-400" type="line"/>
      <point x="249" y="-400" type="line"/>
      <point x="249" y="-312" type="line"/>
      <point x="1209" y="-312" type="line"/>
    </contour>
  </outline>
</glyph>
<glyph name="M" format="1">
  <advance width="1582"/>
  <unicode hex="004D"/>
  <outline>
    <contour>
      <point x="1208" y="1128" type="line"/>
      <point x="1208" y="90" type="line"/>
      <point x="1046" y="90" type="line"/>
      <point x="1046" y="588" type="line"/>
      <point x="588" y="588" type="line"/>
      <point x="567" y="480"/>
      <point x="514" y="272" type="qcurve"/>
      <point x="475" y="148"/>
      <point x="384" y="148" type="qcurve" smooth="yes"/>
      <point x="267" y="148"/>
      <point x="267" y="271" type="qcurve" smooth="yes"/>
      <point x="267" y="325"/>
      <point x="292" y="380" type="qcurve" smooth="yes"/>
      <point x="329" y="457"/>
      <point x="366" y="534" type="qcurve" smooth="yes"/>
      <point x="413" y="644"/>
      <point x="424" y="774" type="qcurve" smooth="yes"/>
      <point x="431" y="850"/>
      <point x="431" y="907" type="qcurve" smooth="yes"/>
      <point x="431" y="1128"/>
      <point x="344" y="1128" type="qcurve" smooth="yes"/>
      <point x="186" y="1128" type="line"/>
      <point x="186" y="1288" type="line"/>
      <point x="398" y="1288" type="line" smooth="yes"/>
      <point x="557" y="1288"/>
      <point x="584" y="1056" type="qcurve" smooth="yes"/>
      <point x="592" y="988"/>
      <point x="592" y="748" type="qcurve"/>
      <point x="1046" y="748" type="line"/>
      <point x="1046" y="1288" type="line"/>
      <point x="1390" y="1288" type="line"/>
      <point x="1390" y="1128" type="line"/>
    </contour>
    <contour>
      <point x="887" y="1370" type="line"/>
      <point x="791" y="1370" type="line"/>
      <point x="791" y="2058" type="line"/>
      <point x="887" y="2058" type="line"/>
    </contour>
  </outline>
</glyph>
<glyph name="Q" format="2">
  <advance width="0"/>
  <unicode hex="0051"/>
  <outline>
    <contour>
      <point x="271" y="3639" type="line"/>
      <point x="271" y="3640" type="line"/>
      <point x="1499" y="3640" type="line"/>
      <point x="1499" y="3309" type="line"/>
      <point x="362" y="3309" type="line"/>
      <point x="362" y="2498" type="line"/>
      <point x="197" y="2498" type="line"/>
      <point x="197" y="3639" type="line"/>
    </contour>
  </outline>
</glyph>
<glyph name="R" format="2">
  <advance width="1582"/>
  <unicode hex="0052"/>
  <outline>
    <contour>
      <point x="436" y="1846" type="qcurve" smooth="yes"/>
      <point x="623" y="1844"/>
      <point x="956" y="1640"/>
      <point x="1068" y="1466" type="qcurve" smooth="yes"/>
      <point x="1102" y="1413"/>
      <point x="1102" y="1391" type="qcurve" smooth="yes"/>
      <point x="1102" y="1373"/>
      <point x="1089" y="1373" type="qcurve" smooth="yes"/>
      <point x="1078" y="1373"/>
      <point x="950" y="1479" type="qcurve" smooth="yes"/>
      <point x="804" y="1599"/>
      <point x="686" y="1648" type="qcurve" smooth="yes"/>
      <point x="603.5" y="1682.57"/>
      <point x="444.449" y="1682.57" type="qcurve" smooth="yes"/>
      <point x="401.071" y="1682.57"/>
      <point x="352" y="1680" type="qcurve"/>
      <point x="299" y="1709"/>
      <point x="299" y="1753" type="qcurve" smooth="yes"/>
      <point x="299" y="1791"/>
      <point x="338" y="1819" type="qcurve" smooth="yes"/>
      <point x="375.655" y="1846.03"/>
      <point x="431.955" y="1846.03" type="qcurve" smooth="yes"/>
      <point x="433.966" y="1846.03"/>
    </contour>
    <contour>
      <point x="1174" y="1138" type="line"/>
      <point x="1174" y="418" type="line" smooth="yes"/>
      <point x="1174" y="291"/>
      <point x="1114" y="203" type="qcurve" smooth="yes"/>
      <point x="1043" y="97"/>
      <point x="911" y="97" type="qcurve" smooth="yes"/>
      <point x="890" y="97"/>
      <point x="868" y="100" type="qcurve" smooth="yes"/>
      <point x="687" y="122"/>
      <point x="509" y="331" type="qcurve" smooth="yes"/>
      <point x="334" y="536"/>
      <point x="334" y="712" type="qcurve" smooth="yes"/>
      <point x="334" y="910"/>
      <point x="588" y="910" type="qcurve" smooth="yes"/>
      <point x="1010" y="910" type="line"/>
      <point x="1010" y="1138" type="line"/>
      <point x="280" y="1138" type="line"/>
      <point x="280" y="1298" type="line"/>
      <point x="1406" y="1298" type="line"/>
      <point x="1406" y="1138" type="line"/>
    </contour>
    <contour>
      <point x="1010" y="750" type="line"/>
      <point x="630" y="750" type="line" smooth="yes"/>
      <point x="559" y="750"/>
      <point x="509" y="718"/>
      <point x="514" y="676" type="qcurve" smooth="yes"/>
      <point x="526" y="575"/>
      <point x="656" y="420" type="qcurve" smooth="yes"/>
      <point x="795" y="255"/>
      <point x="899" y="255" type="qcurve" smooth="yes"/>
      <point x="948" y="255"/>
      <point x="980" y="297" type="qcurve" smooth="yes"/>
      <point x="1010" y="335"/>
      <point x="1010" y="386" type="qcurve" smooth="yes"/>
    </contour>
    <contour>
      <point x="1199" y="-400" type="line"/>
      <point x="386" y="-400" type="line"/>
      <point x="386" y="-312" type="line"/>
      <point x="1199" y="-312" type="line"/>
    </contour>
  </outline>
</glyph>
<glyph name="U" format="1">
  <advance width="0"/>
  <unicode hex="0055"/>
  <outline>
    <contour>
      <point x="-406" y="2303" type="line"/>
      <point x="-470" y="2225" type="line"/>
      <point x="-522" y="2167" type="line"/>
      <point x="-544" y="2155"/>
      <point x="-556" y="2155" type="qcurve" smooth="yes"/>
      <point x="-572" y="2155"/>
      <point x="-640" y="2235" type="qcurve" smooth="yes"/>
      <point x="-703" y="2307" type="line"/>
      <point x="-703" y="2344" type="line"/>
      <point x="-628" y="2446" type="line" smooth="yes"/>
      <point x="-600" y="2484"/>
      <point x="-572" y="2500" type="qcurve"/>
      <point x="-544" y="2500"/>
      <point x="-406" y="2344" type="qcurve"/>
      <point x="-404" y="2323" type="line"/>
    </contour>
    <contour>
      <point x="-889" y="2303" type="line"/>
      <point x="-953" y="2225" type="line"/>
      <point x="-1005" y="2167" type="line"/>
      <point x="-1027" y="2155"/>
      <point x="-1039" y="2155" type="qcurve" smooth="yes"/>
      <point x="-1055" y="2155"/>
      <point x="-1123" y="2235" type="qcurve" smooth="yes"/>
      <point x="-1186" y="2307" type="line"/>
      <point x="-1186" y="2344" type="line"/>
      <point x="-1111" y="2446" type="line" smooth="yes"/>
      <point x="-1083" y="2484"/>
      <point x="-1055" y="2500" type="qcurve"/>
      <point x="-1027" y="2500"/>
      <point x="-889" y="2344" type="qcurve"/>
      <point x="-887" y="2323" type="line"/>
    </contour>
  </outline>
</glyph>
<glyph name="W" format="2">
  <advance width="0"/>
  <unicode hex="0057"/>
  <outline>
    <contour>
      <point x="-46" y="3643" type="line"/>
      <point x="1547" y="3643" type="line"/>
      <point x="1565" y="3625" type="line"/>
      <point x="1565" y="3328" type="line"/>
      <point x="1547" y="3310" type="line"/>
      <point x="917" y="3310" type="line"/>
      <point x="917" y="3166" type="line"/>
      <point x="899" y="3148" type="line"/>
      <point x="602" y="3148" type="line"/>
      <point x="584" y="3166" type="line"/>
      <point x="584" y="3310" type="line"/>
      <point x="-46" y="3310" type="line"/>
      <point x="-64" y="3328" type="line"/>
      <point x="-64" y="3625" type="line"/>
    </contour>
    <contour>
      <point x="602" y="2995" type="line"/>
      <point x="899" y="2995" type="line"/>
      <point x="917" y="2977" type="line"/>
      <point x="917" y="2842" type="line"/>
      <point x="899" y="2824" type="line"/>
      <point x="602" y="2824" type="line"/>
      <point x="584" y="2842" type="line"/>
      <point x="584" y="2977" type="line"/>
    </contour>
    <contour>
      <point x="602" y="2671" type="line"/>
      <point x="899" y="2671" type="line"/>
      <point x="917" y="2653" type="line"/>
      <point x="917" y="2518" type="line"/>
      <point x="899" y="2500" type="line"/>
      <point x="602" y="2500" type="line"/>
      <point x="584" y="2518" type="line"/>
      <point x="584" y="2653" type="line"/>
    </contour>
  </outline>
</glyph>
<glyph name="bracketleft" format="2">
  <advance width="1582"/>
  <unicode hex="005B"/>
  <outline>
    <contour>
      <point x="1476" y="1128" type="line"/>
      <point x="1476" y="558" type="line"/>
      <point x="1320" y="558" type="line"/>
      <point x="1320" y="1128" type="line"/>
      <point x="1186" y="1128" type="line"/>
      <point x="1186" y="1288" type="line"/>
      <point x="1676" y="1288" type="line"/>
      <point x="1676" y="1128" type="line"/>
    </contour>
    <contour>
      <point x="996" y="1128" type="line"/>
      <point x="996" y="614" type="line"/>
      <point x="342" y="614" type="line"/>
      <point x="338" y="577"/>
      <point x="338" y="548" type="qcurve" smooth="yes"/>
      <point x="338" y="456"/>
      <point x="388" y="382" type="qcurve" smooth="yes"/>
      <point x="483" y="241"/>
      <point x="662" y="226" type="qcurve" smooth="yes"/>
      <point x="724" y="221"/>
      <point x="848" y="268" type="qcurve" smooth="yes"/>
      <point x="977" y="317"/>
      <point x="992" y="317" type="qcurve" smooth="yes"/>
      <point x="1007" y="317"/>
      <point x="1007" y="298" type="qcurve" smooth="yes"/>
      <point x="1007" y="241"/>
      <point x="921" y="176" type="qcurve" smooth="yes"/>
      <point x="815" y="95"/>
      <point x="658" y="90" type="qcurve" smooth="yes"/>
      <point x="345" y="80"/>
      <point x="226" y="346" type="qcurve" smooth="yes"/>
      <point x="177" y="457"/>
      <point x="170" y="614" type="qcurve"/>
      <point x="72" y="610" type="line" smooth="yes"/>
      <point x="18" y="608"/>
      <point x="18" y="674" type="qcurve" smooth="yes"/>
      <point x="18" y="783"/>
      <point x="173" y="945"/>
      <point x="276" y="945" type="qcurve" smooth="yes"/>
      <point x="338" y="945"/>
      <point x="338" y="890" type="qcurve" smooth="yes"/>
      <point x="338" y="776" type="line"/>
      <point x="824" y="776" type="line"/>
      <point x="824" y="1128" type="line"/>
      <point x="-24" y="1128" type="line"/>
      <point x="-24" y="1288" type="line"/>
      <point x="1180" y="1288" type="line"/>
      <point x="1180" y="1128" type="line"/>
    </contour>
  </outline>
</glyph>
<glyph name="backslash" format="1">
  <advance width="3164"/>
  <unicode hex="005C"/>
  <outline>
    <contour>
      <point x="2845" y="1128" type="line"/>
      <point x="2845" y="408" type="line" smooth="yes"/>
      <point x="2845" y="281"/>
      <point x="2785" y="193" type="qcurve" smooth="yes"/>
      <point x="2714" y="87"/>
      <point x="2582" y="87" type="qcurve" smooth="yes"/>
      <point x="2561" y="87"/>
      <point x="2539" y="90" type="qcurve" smooth="yes"/>
      <point x="2358" y="112"/>
      <point x="2180" y="321" type="qcurve" smooth="yes"/>
      <point x="2005" y="526"/>
      <point x="2005" y="702" type="qcurve" smooth="yes"/>
      <point x="2005" y="900"/>
      <point x="2259" y="900" type="qcurve" smooth="yes"/>
      <point x="2681" y="900" type="line"/>
      <point x="2681" y="1128" type="line"/>
      <point x="1951" y="1128" type="line"/>
      <point x="1951" y="1288" type="line"/>
      <point x="3077" y="1288" type="line"/>
      <point x="3077" y="1128" type="line"/>
    </contour>
    <contour>
      <point x="2681" y="740" type="line"/>
      <point x="2301" y="740" type="line" smooth="yes"/>
      <point x="2230" y="740"/>
      <point x="2180" y="708"/>
      <point x="2185" y="666" type="qcurve" smooth="yes"/>
      <point x="2197" y="565"/>
      <point x="2327" y="410" type="qcurve" smooth="yes"/>
      <point x="2466" y="245"/>
      <point x="2570" y="245" type="qcurve" smooth="yes"/>
      <point x="2619" y="245"/>
      <point x="2651" y="287" type="qcurve" smooth="yes"/>
      <point x="2681" y="325"/>
      <point x="2681" y="376" type="qcurve" smooth="yes"/>
    </contour>
    <contour>
      <point x="403" y="1128" type="line"/>
      <point x="403" y="88" type="line"/>
      <point x="243" y="88" type="line"/>
      <point x="243" y="1128" type="line"/>
      <point x="87" y="1128" type="line"/>
      <point x="87" y="1288" type="line"/>
      <point x="243" y="1288" type="line"/>
      <point x="231" y="1518"/>
      <point x="313" y="1654" type="qcurve" smooth="yes"/>
      <point x="397" y="1794"/>
      <point x="629" y="1794" type="qcurve" smooth="yes"/>
      <point x="718" y="1794"/>
      <point x="877" y="1694"/>
      <point x="907" y="1612" type="qcurve" smooth="yes"/>
      <point x="948" y="1500"/>
      <point x="937" y="1398" type="qcurve"/>
      <point x="789" y="1398" type="line"/>
      <point x="786" y="1429"/>
      <point x="776" y="1506" type="qcurve" smooth="yes"/>
      <point x="754" y="1642"/>
      <point x="597" y="1642" type="qcurve" smooth="yes"/>
      <point x="457" y="1642"/>
      <point x="417" y="1506" type="qcurve" smooth="yes"/>
      <point x="401" y="1452"/>
      <point x="403" y="1288" type="qcurve"/>
      <point x="745" y="1288" type="line"/>
      <point x="745" y="1128" type="line"/>
    </contour>
    <contour>
      <point x="1766" y="1128" type="line"/>
      <point x="1766" y="614" type="line"/>
      <point x="1112" y="614" type="line"/>
      <point x="1108" y="577"/>
      <point x="1108" y="548" type="qcurve" smooth="yes"/>
      <point x="1108" y="456"/>
      <point x="1158" y="382" type="qcurve" smooth="yes"/>
      <point x="1253" y="241"/>
      <point x="1432" y="226" type="qcurve" smooth="yes"/>
      <point x="1494" y="221"/>
      <point x="1618" y="268" type="qcurve" smooth="yes"/>
      <point x="1747" y="317"/>
      <point x="1762" y="317" type="qcurve" smooth="yes"/>
      <point x="1777" y="317"/>
      <point x="1777" y="298" type="qcurve" smooth="yes"/>
      <point x="1777" y="241"/>
      <point x="1691" y="176" type="qcurve" smooth="yes"/>
      <point x="1585" y="95"/>
      <point x="1428" y="90" type="qcurve" smooth="yes"/>
      <point x="1115" y="80"/>
      <point x="996" y="346" type="qcurve" smooth="yes"/>
      <point x="947" y="457"/>
      <point x="940" y="614" type="qcurve"/>
      <point x="842" y="610" type="line" smooth="yes"/>
      <point x="788" y="608"/>
      <point x="788" y="674" type="qcurve" smooth="yes"/>
      <point x="788" y="783"/>
      <point x="943" y="945"/>
      <point x="1046" y="945" type="qcurve" smooth="yes"/>
      <point x="1108" y="945"/>
      <point x="1108" y="890" type="qcurve" smooth="yes"/>
      <point x="1108" y="776" type="line"/>
      <point x="1594" y="776" type="line"/>
      <point x="1594" y="1128" type="line"/>
      <point x="746" y="1128" type="line"/>
      <point x="746" y="1288" type="line"/>
      <point x="1950" y="1288" type="line"/>
      <point x="1950" y="1128" type="line"/>
    </contour>
    <contour>
      <point x="2722" y="-1200" type="qcurve"/>
      <point x="2769" y="-1200" type="line"/>
      <point x="2672" y="-1350"/>
      <point x="2542" y="-1451" type="qcurve" smooth="yes"/>
      <point x="2357" y="-1594"/>
      <point x="1854" y="-1750"/>
      <point x="1584" y="-1750" type="qcurve" smooth="yes"/>
      <point x="1189" y="-1750"/>
      <point x="537" y="-1445"/>
      <point x="396" y="-1200" type="qcurve"/>
      <point x="450" y="-1200" type="line"/>
      <point x="537" y="-1322"/>
      <point x="838" y="-1479"/>
      <point x="1300" y="-1557"/>
      <point x="1551" y="-1557" type="qcurve" smooth="yes"/>
      <point x="1824" y="-1557"/>
      <point x="2047" y="-1524" type="qcurve" smooth="yes"/>
      <point x="2223" y="-1498"/>
      <point x="2436" y="-1425"/>
      <point x="2632" y="-1300"/>
    </contour>
  </outline>
</glyph>
<glyph name="bracketright" format="2">
  <advance width="1582"/>
  <unicode hex="005D"/>
  <outline>
    <contour>
      <point x="1398" y="1128" type="line"/>
      <point x="1398" y="558" type="line"/>
      <point x="1242" y="558" type="line"/>
      <point x="1242" y="1128" type="line"/>
      <point x="1108" y="1128" type="line"/>
      <point x="1108" y="1288" type="line"/>
      <point x="1598" y="1288" type="line"/>
      <point x="1598" y="1128" type="line"/>
    </contour>
    <contour>
      <point x="874" y="1128" type="line"/>
      <point x="874" y="408" type="line" smooth="yes"/>
      <point x="874" y="281"/>
      <point x="814" y="193" type="qcurve" smooth="yes"/>
      <point x="743" y="87"/>
      <point x="611" y="87" type="qcurve" smooth="yes"/>
      <point x="590" y="87"/>
      <point x="568" y="90" type="qcurve" smooth="yes"/>
      <point x="387" y="112"/>
      <point x="209" y="321" type="qcurve" smooth="yes"/>
      <point x="34" y="526"/>
      <point x="34" y="702" type="qcurve" smooth="yes"/>
      <point x="34" y="900"/>
      <point x="288" y="900" type="qcurve" smooth="yes"/>
      <point x="710" y="900" type="line"/>
      <point x="710" y="1128" type="line"/>
      <point x="-20" y="1128" type="line"/>
      <point x="-20" y="1288" type="line"/>
      <point x="1106" y="1288" type="line"/>
      <point x="1106" y="1128" type="line"/>
    </contour>
    <contour>
      <point x="710" y="740" type="line"/>
      <point x="330" y="740" type="line" smooth="yes"/>
      <point x="259" y="740"/>
      <point x="209" y="708"/>
      <point x="214" y="666" type="qcurve" smooth="yes"/>
      <point x="226" y="565"/>
      <point x="356" y="410" type="qcurve" smooth="yes"/>
      <point x="495" y="245"/>
      <point x="599" y="245" type="qcurve" smooth="yes"/>
      <point x="648" y="245"/>
      <point x="680" y="287" type="qcurve" smooth="yes"/>
      <point x="710" y="325"/>
      <point x="710" y="376" type="qcurve" smooth="yes"/>
    </contour>
  </outline>
</glyph>
<glyph name="underscore" format="2">
  <advance width="1582"/>
  <unicode hex="005F"/>
  <outline>
    <contour>
      <point x="-72" y="440" type="line"/>
      <point x="-103" y="451" type="line"/>
      <point x="63" y="588" type="line"/>
      <point x="1688" y="588" type="line"/>
      <point x="1718" y="578" type="line"/>
      <point x="1534" y="440" type="line"/>
    </contour>
  </outline>
</glyph>
<glyph name="a" format="1">
  <advance width="1582"/>
  <unicode hex="0061"/>
  <outline>
    <contour>
      <point x="879" y="-658" type="line"/>
      <point x="703" y="-471" type="line"/>
      <point x="703" y="1934" type="line"/>
      <point x="879" y="1768" type="line"/>
    </contour>
  </outline>
</glyph>
<glyph name="d" format="1">
  <advance width="1582"/>
  <unicode hex="0064"/>
  <outline>
    <contour>
      <point x="1384" y="1128" type="line"/>
      <point x="1178" y="1128" type="line"/>
      <point x="1178" y="90" type="line"/>
      <point x="1016" y="90" type="line"/>
      <point x="1016" y="352" type="line"/>
      <point x="859" y="268"/>
      <point x="740" y="268" type="qcurve" smooth="yes"/>
      <point x="554" y="268"/>
      <point x="397" y="375" type="qcurve" smooth="yes"/>
      <point x="280" y="455"/>
      <point x="260" y="512" type="qcurve"/>
      <point x="296" y="593"/>
      <point x="367" y="822" type="qcurve"/>
      <point x="380.349" y="878.159"/>
      <point x="380.349" y="947.455" type="qcurve" smooth="yes"/>
      <point x="380.349" y="1028.7"/>
      <point x="362" y="1128" type="qcurve"/>
      <point x="210" y="1128" type="line"/>
      <point x="210" y="1288" type="line"/>
      <point x="1384" y="1288" type="line"/>
    </contour>
    <contour>
      <point x="1016" y="1128" type="line"/>
      <point x="526" y="1128" type="line"/>
      <point x="546.891" y="1008.04"/>
      <point x="546.891" y="916.245" type="qcurve" smooth="yes"/>
      <point x="546.891" y="871.826"/>
      <point x="542" y="834" type="qcurve" smooth="yes"/>
      <point x="527" y="717"/>
      <point x="450" y="546" type="qcurve"/>
      <point x="591" y="432"/>
      <point x="784" y="432" type="qcurve" smooth="yes"/>
      <point x="846" y="432"/>
      <point x="1016" y="534" type="qcurve"/>
    </contour>
  </outline>
</glyph>
<glyph name="e" format="2">
  <advance width="0"/>
  <unicode hex="0065"/>
  <outline>
    <contour>
      <point x="28" y="3643" type="qcurve" smooth="yes"/>
      <point x="651" y="3643"/>
      <point x="1108" y="3094" type="qcurve"/>
      <point x="1306" y="2811"/>
      <point x="1306" y="2509" type="qcurve"/>
      <point x="1297" y="2500" type="line"/>
      <point x="1153" y="2500" type="line" smooth="yes"/>
      <point x="1137" y="2500"/>
      <point x="1108" y="2761" type="qcurve"/>
      <point x="1003" y="3063"/>
      <point x="775" y="3175" type="qcurve"/>
      <point x="486" y="3310"/>
      <point x="10" y="3310" type="qcurve"/>
      <point x="1" y="3319" type="line"/>
      <point x="1" y="3625" type="line" smooth="yes"/>
      <point x="1" y="3643"/>
    </contour>
  </outline>
</glyph>
<glyph name="g" format="2">
  <advance width="1582"/>
  <unicode hex="0067"/>
  <outline>
    <contour>
      <point x="1256" y="1128" type="line"/>
      <point x="1256" y="90" type="line"/>
      <point x="1096" y="90" type="line"/>
      <point x="1096" y="1128" type="line"/>
      <point x="892" y="1128" type="line"/>
      <point x="892" y="406" type="line" smooth="yes"/>
      <point x="892" y="249"/>
      <point x="806" y="168" type="qcurve" smooth="yes"/>
      <point x="734" y="100"/>
      <point x="628" y="100" type="qcurve" smooth="yes"/>
      <point x="456" y="100"/>
      <point x="328" y="257" type="qcurve" smooth="yes"/>
      <point x="207" y="405"/>
      <point x="207" y="578" type="qcurve" smooth="yes"/>
      <point x="207" y="759"/>
      <point x="350" y="834" type="qcurve" smooth="yes"/>
      <point x="441" y="882"/>
      <point x="730" y="882" type="qcurve"/>
      <point x="730" y="1128" type="line"/>
      <point x="156" y="1128" type="line"/>
      <point x="156" y="1288" type="line"/>
      <point x="1470" y="1288" type="line"/>
      <point x="1470" y="1128" type="line"/>
    </contour>
    <contour>
      <point x="730" y="724" type="line"/>
      <point x="607" y="720"/>
      <point x="464" y="710" type="qcurve"/>
      <point x="372" y="682"/>
      <point x="372" y="569" type="qcurve" smooth="yes"/>
      <point x="372" y="462"/>
      <point x="446" y="364" type="qcurve" smooth="yes"/>
      <point x="526" y="260"/>
      <point x="628" y="260" type="qcurve" smooth="yes"/>
      <point x="703" y="260"/>
      <point x="730" y="342" type="qcurve"/>
    </contour>
    <contour>
      <point x="1443" y="88" type="move" smooth="yes"/>
    </contour>
  </outline>
</glyph>
<glyph name="m" format="2">
  <advance width="1582"/>
  <unicode hex="006D"/>
  <outline>
    <contour>
      <point x="1198" y="1128" type="line"/>
      <point x="1198" y="90" type="line"/>
      <point x="1036" y="90" type="line"/>
      <point x="1036" y="588" type="line"/>
      <point x="578" y="588" type="line"/>
      <point x="557" y="480"/>
      <point x="504" y="272" type="qcurve"/>
      <point x="465" y="148"/>
      <point x="374" y="148" type="qcurve" smooth="yes"/>
      <point x="257" y="148"/>
      <point x="257" y="271" type="qcurve" smooth="yes"/>
      <point x="257" y="325"/>
      <point x="282" y="380" type="qcurve" smooth="yes"/>
      <point x="319" y="457"/>
      <point x="356" y="534" type="qcurve" smooth="yes"/>
      <point x="403" y="644"/>
      <point x="414" y="774" type="qcurve" smooth="yes"/>
      <point x="421" y="850"/>
      <point x="421" y="907" type="qcurve" smooth="yes"/>
      <point x="421" y="1128"/>
      <point x="334" y="1128" type="qcurve" smooth="yes"/>
      <point x="176" y="1128" type="line"/>
      <point x="176" y="1288" type="line"/>
      <point x="388" y="1288" type="line" smooth="yes"/>
      <point x="547" y="1288"/>
      <point x="574" y="1056" type="qcurve" smooth="yes"/>
      <point x="582" y="988"/>
      <point x="582" y="748" type="qcurve"/>
      <point x="1036" y="748" type="line"/>
      <point x="1036" y="1288" type="line"/>
      <point x="1380" y="1288" type="line"/>
      <point x="1380" y="1128" type="line"/>
    </contour>
  </outline>
</glyph>
<glyph name="n" format="1">
  <advance width="1593"/>
  <unicode hex="006E"/>
  <outline>
    <contour>
      <point x="1691" y="1135" type="line"/>
      <point x="1515" y="1135" type="line"/>
      <point x="1515" y="95" type="line"/>
      <point x="1355" y="95" type="line"/>
      <point x="1355" y="1135" type="line"/>
      <point x="1165" y="1135" type="line"/>
      <point x="1165" y="1295" type="line"/>
      <point x="1355" y="1295" type="line"/>
      <point x="1357" y="1457"/>
      <point x="1341" y="1511" type="qcurve" smooth="yes"/>
      <point x="1300" y="1649"/>
      <point x="1161" y="1649" type="qcurve" smooth="yes"/>
      <point x="1058" y="1649"/>
      <point x="1013" y="1585" type="qcurve" smooth="yes"/>
      <point x="985" y="1546"/>
      <point x="977" y="1483" type="qcurve" smooth="yes"/>
      <point x="973" y="1444"/>
      <point x="969" y="1405" type="qcurve"/>
      <point x="821" y="1405" type="line"/>
      <point x="810" y="1505"/>
      <point x="851" y="1617" type="qcurve" smooth="yes"/>
      <point x="880" y="1697"/>
      <point x="962" y="1750" type="qcurve" smooth="yes"/>
      <point x="1041" y="1801"/>
      <point x="1129" y="1801" type="qcurve" smooth="yes"/>
      <point x="1359" y="1801"/>
      <point x="1445" y="1659" type="qcurve" smooth="yes"/>
      <point x="1527" y="1523"/>
      <point x="1515" y="1295" type="qcurve"/>
      <point x="1691" y="1295" type="line"/>
    </contour>
    <contour>
      <point x="618" y="1136" type="line"/>
      <point x="618" y="934" type="line"/>
      <point x="773" y="904"/>
      <point x="887" y="787" type="qcurve" smooth="yes"/>
      <point x="1006" y="663"/>
      <point x="1006" y="511" type="qcurve" smooth="yes"/>
      <point x="1006" y="188"/>
      <point x="711" y="98" type="qcurve"/>
      <point x="711" y="258" type="line"/>
      <point x="789" y="299"/>
      <point x="812" y="335" type="qcurve" smooth="yes"/>
      <point x="847" y="390"/>
      <point x="847" y="511" type="qcurve" smooth="yes"/>
      <point x="847" y="620"/>
      <point x="748" y="698" type="qcurve" smooth="yes"/>
      <point x="653" y="773"/>
      <point x="535" y="773" type="qcurve" smooth="yes"/>
      <point x="418" y="773"/>
      <point x="323" y="698" type="qcurve" smooth="yes"/>
      <point x="224" y="620"/>
      <point x="224" y="511" type="qcurve" smooth="yes"/>
      <point x="224" y="387"/>
      <point x="259" y="335" type="qcurve" smooth="yes"/>
      <point x="284" y="298"/>
      <point x="360" y="258" type="qcurve"/>
      <point x="360" y="98" type="line"/>
      <point x="65" y="188"/>
      <point x="65" y="511" type="qcurve" smooth="yes"/>
      <point x="65" y="663"/>
      <point x="185" y="787" type="qcurve" smooth="yes"/>
      <point x="298" y="904"/>
      <point x="453" y="934" type="qcurve"/>
      <point x="453" y="1136" type="line"/>
      <point x="4" y="1136" type="line"/>
      <point x="4" y="1296" type="line"/>
      <point x="1160" y="1296" type="line"/>
      <point x="1160" y="1136" type="line"/>
    </contour>
  </outline>
</glyph>
<glyph name="p" format="1">
  <advance width="1582"/>
  <unicode hex="0070"/>
  <outline>
    <contour>
      <point x="1164" y="1128" type="line"/>
      <point x="1164" y="90" type="line"/>
      <point x="1000" y="90" type="line"/>
      <point x="1000" y="366" type="line"/>
      <point x="960" y="335"/>
      <point x="884" y="306" type="qcurve" smooth="yes"/>
      <point x="793" y="272"/>
      <point x="720" y="272" type="qcurve" smooth="yes"/>
      <point x="590" y="272"/>
      <point x="472" y="327" type="qcurve" smooth="yes"/>
      <point x="383" y="368"/>
      <point x="314" y="436" type="qcurve" smooth="yes"/>
      <point x="263.234" y="485.875"/>
      <point x="263.234" y="507.194" type="qcurve" smooth="yes"/>
      <point x="263.234" y="509.812"/>
      <point x="264" y="512" type="qcurve"/>
      <point x="259" y="515"/>
      <point x="259" y="525" type="qcurve" smooth="yes"/>
      <point x="259" y="545"/>
      <point x="320" y="688" type="qcurve" smooth="yes"/>
      <point x="392" y="856"/>
      <point x="404" y="942" type="qcurve" smooth="yes"/>
      <point x="406" y="956"/>
      <point x="406" y="973" type="qcurve" smooth="yes"/>
      <point x="406" y="1033"/>
      <point x="380" y="1075" type="qcurve" smooth="yes"/>
      <point x="348" y="1128"/>
      <point x="284" y="1128" type="qcurve" smooth="yes"/>
      <point x="186" y="1128" type="line"/>
      <point x="186" y="1288" type="line"/>
      <point x="370" y="1288" type="line" smooth="yes"/>
      <point x="456" y="1288"/>
      <point x="516" y="1179" type="qcurve" smooth="yes"/>
      <point x="570" y="1083"/>
      <point x="570" y="976" type="qcurve" smooth="yes"/>
      <point x="570" y="951"/>
      <point x="566" y="930" type="qcurve" smooth="yes"/>
      <point x="531" y="741"/>
      <point x="436" y="554" type="qcurve"/>
      <point x="571" y="436"/>
      <point x="764" y="436" type="qcurve" smooth="yes"/>
      <point x="809" y="436"/>
      <point x="895" y="482" type="qcurve" smooth="yes"/>
      <point x="975" y="524"/>
      <point x="1000" y="554" type="qcurve"/>
      <point x="1000" y="1288" type="line"/>
      <point x="1376" y="1288" type="line"/>
      <point x="1376" y="1128" type="line"/>
    </contour>
  </outline>
</glyph>
<glyph name="r" format="1">
  <advance width="1582"/>
  <unicode hex="0072"/>
  <outline>
    <contour>
      <point x="366" y="1846" type="qcurve" smooth="yes"/>
      <point x="553" y="1844"/>
      <point x="886" y="1640"/>
      <point x="998" y="1466" type="qcurve" smooth="yes"/>
      <point x="1032" y="1413"/>
      <point x="1032" y="1391" type="qcurve" smooth="yes"/>
      <point x="1032" y="1373"/>
      <point x="1019" y="1373" type="qcurve" smooth="yes"/>
      <point x="1008" y="1373"/>
      <point x="880" y="1479" type="qcurve" smooth="yes"/>
      <point x="734" y="1599"/>
      <point x="616" y="1648" type="qcurve" smooth="yes"/>
      <point x="533.5" y="1682.57"/>
      <point x="374.449" y="1682.57" type="qcurve" smooth="yes"/>
      <point x="331.071" y="1682.57"/>
      <point x="282" y="1680" type="qcurve"/>
      <point x="229" y="1709"/>
      <point x="229" y="1753" type="qcurve" smooth="yes"/>
      <point x="229" y="1791"/>
      <point x="268" y="1819" type="qcurve" smooth="yes"/>
      <point x="305.655" y="1846.03"/>
      <point x="361.955" y="1846.03" type="qcurve" smooth="yes"/>
      <point x="363.966" y="1846.03"/>
    </contour>
    <contour>
      <point x="1104" y="1138" type="line"/>
      <point x="1104" y="418" type="line" smooth="yes"/>
      <point x="1104" y="291"/>
      <point x="1044" y="203" type="qcurve" smooth="yes"/>
      <point x="973" y="97"/>
      <point x="841" y="97" type="qcurve" smooth="yes"/>
      <point x="820" y="97"/>
      <point x="798" y="100" type="qcurve" smooth="yes"/>
      <point x="617" y="122"/>
      <point x="439" y="331" type="qcurve" smooth="yes"/>
      <point x="264" y="536"/>
      <point x="264" y="712" type="qcurve" smooth="yes"/>
      <point x="264" y="910"/>
      <point x="518" y="910" type="qcurve" smooth="yes"/>
      <point x="940" y="910" type="line"/>
      <point x="940" y="1138" type="line"/>
      <point x="210" y="1138" type="line"/>
      <point x="210" y="1298" type="line"/>
      <point x="1336" y="1298" type="line"/>
      <point x="1336" y="1138" type="line"/>
    </contour>
    <contour>
      <point x="940" y="750" type="line"/>
      <point x="560" y="750" type="line" smooth="yes"/>
      <point x="489" y="750"/>
      <point x="439" y="718"/>
      <point x="444" y="676" type="qcurve" smooth="yes"/>
      <point x="456" y="575"/>
      <point x="586" y="420" type="qcurve" smooth="yes"/>
      <point x="725" y="255"/>
      <point x="829" y="255" type="qcurve" smooth="yes"/>
      <point x="878" y="255"/>
      <point x="910" y="297" type="qcurve" smooth="yes"/>
      <point x="940" y="335"/>
      <point x="940" y="386" type="qcurve" smooth="yes"/>
    </contour>
  </outline>
</glyph>
<glyph name="s" format="2">
  <advance width="1582"/>
  <unicode hex="0073"/>
  <outline>
    <contour>
      <point x="1188" y="1128" type="line"/>
      <point x="1188" y="90" type="line"/>
      <point x="1026" y="90" type="line"/>
      <point x="1026" y="588" type="line"/>
      <point x="546" y="588" type="line"/>
      <point x="537" y="495"/>
      <point x="498" y="294" type="qcurve"/>
      <point x="458" y="148"/>
      <point x="364" y="148" type="qcurve" smooth="yes"/>
      <point x="248" y="148"/>
      <point x="248" y="272" type="qcurve" smooth="yes"/>
      <point x="248" y="310"/>
      <point x="260" y="350" type="qcurve" smooth="yes"/>
      <point x="298" y="445"/>
      <point x="336" y="539" type="qcurve" smooth="yes"/>
      <point x="386" y="667"/>
      <point x="393" y="760" type="qcurve" smooth="yes"/>
      <point x="395" y="788"/>
      <point x="395" y="815" type="qcurve" smooth="yes"/>
      <point x="395" y="882"/>
      <point x="381" y="971" type="qcurve" smooth="yes"/>
      <point x="367" y="1049"/>
      <point x="354" y="1128" type="qcurve"/>
      <point x="172" y="1128" type="line"/>
      <point x="172" y="1288" type="line"/>
      <point x="1370" y="1288" type="line"/>
      <point x="1370" y="1128" type="line"/>
    </contour>
    <contour>
      <point x="1026" y="1128" type="line"/>
      <point x="516" y="1128" type="line"/>
      <point x="558" y="963"/>
      <point x="558" y="829" type="qcurve" smooth="yes"/>
      <point x="558" y="788"/>
      <point x="554" y="748" type="qcurve"/>
      <point x="1026" y="748" type="line"/>
    </contour>
  </outline>
</glyph>
<glyph name="u" format="2">
  <advance width="2"/>
  <unicode hex="0075"/>
  <outline>
    <contour>
      <point x="-643" y="2303" type="line"/>
      <point x="-707" y="2225" type="line"/>
      <point x="-759" y="2167" type="line"/>
      <point x="-781" y="2155"/>
      <point x="-793" y="2155" type="qcurve" smooth="yes"/>
      <point x="-809" y="2155"/>
      <point x="-877" y="2235" type="qcurve" smooth="yes"/>
      <point x="-940" y="2307" type="line"/>
      <point x="-940" y="2344" type="line"/>
      <point x="-865" y="2446" type="line" smooth="yes"/>
      <point x="-837" y="2484"/>
      <point x="-809" y="2500" type="qcurve"/>
      <point x="-781" y="2500"/>
      <point x="-643" y="2344" type="qcurve"/>
      <point x="-641" y="2323" type="line"/>
    </contour>
  </outline>
</glyph>
<glyph name="w" format="2">
  <advance width="0"/>
  <unicode hex="0077"/>
  <outline>
    <contour>
      <point x="-43" y="3643" type="line"/>
      <point x="1550" y="3643" type="line"/>
      <point x="1568" y="3625" type="line"/>
      <point x="1568" y="3328" type="line"/>
      <point x="1550" y="3310" type="line"/>
      <point x="-43" y="3310" type="line"/>
      <point x="-61" y="3328" type="line"/>
      <point x="-61" y="3625" type="line"/>
    </contour>
  </outline>
</glyph>
<glyph name="quoteright" format="1">
  <advance width="1582"/>
  <unicode hex="2019"/>
  <outline>
    <contour>
      <point x="1104" y="1138" type="line"/>
      <point x="1104" y="418" type="line" smooth="yes"/>
      <point x="1104" y="291"/>
      <point x="1044" y="203" type="qcurve" smooth="yes"/>
      <point x="973" y="97"/>
      <point x="841" y="97" type="qcurve" smooth="yes"/>
      <point x="820" y="97"/>
      <point x="798" y="100" type="qcurve" smooth="yes"/>
      <point x="617" y="122"/>
      <point x="439" y="331" type="qcurve" smooth="yes"/>
      <point x="264" y="536"/>
      <point x="264" y="712" type="qcurve" smooth="yes"/>
      <point x="264" y="910"/>
      <point x="518" y="910" type="qcurve" smooth="yes"/>
      <point x="940" y="910" type="line"/>
      <point x="940" y="1138" type="line"/>
      <point x="210" y="1138" type="line"/>
      <point x="210" y="1298" type="line"/>
      <point x="1336" y="1298" type="line"/>
      <point x="1336" y="1138" type="line"/>
    </contour>
    <contour>
      <point x="940" y="750" type="line"/>
      <point x="560" y="750" type="line" smooth="yes"/>
      <point x="489" y="750"/>
      <point x="439" y="718"/>
      <point x="444" y="676" type="qcurve" smooth="yes"/>
      <point x="456" y="575"/>
      <point x="586" y="420" type="qcurve" smooth="yes"/>
      <point x="725" y="255"/>
      <point x="829" y="255" type="qcurve" smooth="yes"/>
      <point x="878" y="255"/>
      <point x="910" y="297" type="qcurve" smooth="yes"/>
      <point x="940" y="335"/>
      <point x="940" y="386" type="qcurve" smooth="yes"/>
    </contour>
  </outline>
</glyph>
<glyph name=".notdef" format="1">
  <advance width="1582"/>
  <outline>
    <contour>
      <point x="279" y="0" type="line"/>
      <point x="279" y="1280" type="line"/>
      <point x="1303" y="1280" type="line"/>
      <point x="1303" y="0" type="line"/>
    </contour>
    <contour>
      <point x="311" y="32" type="line"/>
      <point x="1271" y="32" type="line"/>
      <point x="1271" y="1248" type="line"/>
      <point x="311" y="1248" type="line"/>
    </contour>
  </outline>
</glyph>
